<?xml version="1.0" encoding="UTF-8"?>
<svg xmlns="http://www.w3.org/2000/svg" viewBox="0 0 131 131" fill-rule="evenodd" clip-rule="evenodd" stroke-linejoin="round" stroke-miterlimit="1.414">
  <g fill="#fefefe" fill-rule="nonzero">
    <path d="M21.403 112.817a.366.366 0 0 0 .524-.003.37.37 0 0 0 .006-.524C6.437 95.977-4.14 69.417 17.03 48.244c18.023-18.027 39.533-3.327 56.817 8.486 11.416 7.804 21.28 14.54 26.81 9.01 8.286-8.286-1.714-19.58-4.977-22.843l-1.517-1.45a.374.374 0 0 0-.516.007.379.379 0 0 0-.014.523c5.494 6.083 6.6 11.89 2.964 15.527-5.674 5.676-15.5-1.027-26.877-8.784-17.34-11.826-38.92-26.54-58.197-7.266C5.443 47.534 1.587 54.28 0 61.58 2.833 27.404 31.453.544 66.36.544c30.97 0 56.997 21.133 64.46 49.763-4.18-11.643-12.217-21.083-17.64-26.51l-1.857-1.813a.376.376 0 0 0-.533.53c15.497 16.31 26.08 42.87 4.907 64.043-18.027 18.027-39.537 3.327-56.82-8.483C47.46 70.27 37.6 63.534 32.07 69.064c-2.14 2.14-3.223 4.653-3.223 7.473 0 18.613 6.58 36.997 17.476 53.347.36.376.714.746 1.064 1.116C25.81 124.6 8.813 107.577 2.46 85.98c4.307 10.96 11.897 19.834 17.09 25.027l1.853 1.81z"></path>
    <path d="M50.173 103.28h-5.5l8.57 27.46H57.1l5.07-17.603h.07l5.357 17.603h3.856l9.107-27.46h-5.5l-5.283 18.353h-.074l-5.57-18.706h-3.106l-5.357 18.706h-.07l-5.427-18.353zM97.587 105.567c-1.644-1.82-4.964-3-7.357-3-4.533 0-7.853 3.607-7.853 8.07 0 4.177 2.533 5.927 6 7.353 2.103.824 4.673 1.61 4.673 4.394 0 2.07-1.32 3.893-3.463 3.893-2.25 0-4.14-1.857-4.854-3.927l-3.393 3.32c1.857 3.104 4.57 5.247 8.283 5.247 5.5 0 8.857-3.82 8.857-9.21 0-9.037-10.677-7.143-10.677-11.677 0-1.75 1.607-3.033 3.284-3.033 1.75 0 3.036.857 4.036 2.213l2.464-3.643zM109.143 103.28h-5.247v27.46h12.677v-4.57h-7.43v-22.89z"></path>
  </g>
</svg>
